<svg xmlns="http://www.w3.org/2000/svg" viewBox="0 0 300 400">
  <defs>
    <linearGradient id="bg" x1="0%" y1="0%" x2="100%" y2="100%">
      <stop offset="0%" stop-color="#9f1239"/>
      <stop offset="100%" stop-color="#4c0519"/>
    </linearGradient>
    <radialGradient id="star" cx="50%" cy="50%" r="50%">
      <stop offset="0%" stop-color="#fb7185"/>
      <stop offset="100%" stop-color="#be123c" stop-opacity="0"/>
    </radialGradient>
  </defs>
  <rect width="300" height="400" fill="url(#bg)"/>
  <circle cx="150" cy="140" r="40" fill="url(#star)" opacity="0.3"/>
  <circle cx="150" cy="140" r="3" fill="#fff1f2"/>
  <path d="M90 80 L100 60 L110 80 L130 80 L115 95 L120 115 L100 100 L80 115 L85 95 L70 80 Z" fill="#fff1f2" opacity="0.9"/>
  <path d="M200 180 L205 170 L210 180 L220 180 L212 188 L215 198 L200 190 L185 198 L188 188 L180 180 Z" fill="#fff1f2" opacity="0.6"/>
  <circle cx="60" cy="200" r="1.5" fill="#fff1f2" opacity="0.8"/>
  <circle cx="240" cy="120" r="1.5" fill="#fff1f2" opacity="0.8"/>
  <circle cx="80" cy="320" r="1.5" fill="#fff1f2" opacity="0.6"/>
  <circle cx="220" cy="280" r="1.5" fill="#fff1f2" opacity="0.7"/>
  <circle cx="180" cy="340" r="1.5" fill="#fff1f2" opacity="0.5"/>
  <path d="M110 260 Q150 240 190 260" fill="none" stroke="#fda4af" stroke-width="1.5" opacity="0.4"/>
  <text x="150" y="310" font-family="Georgia, serif" font-size="18" fill="#fff1f2" text-anchor="middle" opacity="0.9">Echoes of</text>
  <text x="150" y="332" font-family="Georgia, serif" font-size="18" fill="#fff1f2" text-anchor="middle" opacity="0.9">Stars</text>
</svg>
